<svg width="163" height="33" viewBox="0 0 163 33" fill="none" xmlns="http://www.w3.org/2000/svg">
<path d="M102.324 16.4766C103.233 16.7638 103.944 17.2473 104.459 17.9273C104.974 18.5922 105.231 19.4158 105.231 20.398C105.231 21.7882 104.686 22.8612 103.596 23.6167C102.521 24.3572 100.947 24.7274 98.8726 24.7274H90.6523V8.8606H98.4185C100.356 8.8606 101.84 9.23082 102.869 9.97127C103.914 10.7118 104.436 11.7166 104.436 12.986C104.436 13.7566 104.247 14.4441 103.868 15.0486C103.505 15.6531 102.99 16.1291 102.324 16.4766ZM94.3083 11.6259V15.366H97.9643C98.8726 15.366 99.5614 15.2073 100.031 14.89C100.5 14.5726 100.735 14.1041 100.735 13.4846C100.735 12.8651 100.5 12.4041 100.031 12.1019C99.5614 11.7846 98.8726 11.6259 97.9643 11.6259H94.3083ZM98.6001 21.962C99.5691 21.962 100.296 21.8033 100.78 21.486C101.28 21.1687 101.529 20.6775 101.529 20.0127C101.529 18.698 100.553 18.0407 98.6001 18.0407H94.3083V21.962H98.6001ZM113.579 24.9087C112.293 24.9087 111.135 24.6442 110.105 24.1154C109.091 23.5714 108.296 22.8233 107.72 21.8713C107.146 20.9193 106.858 19.8389 106.858 18.63C106.858 17.4211 107.146 16.3406 107.72 15.3886C108.296 14.4366 109.091 13.6961 110.105 13.1673C111.135 12.6233 112.293 12.3513 113.579 12.3513C114.866 12.3513 116.017 12.6233 117.031 13.1673C118.045 13.6961 118.84 14.4366 119.415 15.3886C119.991 16.3406 120.278 17.4211 120.278 18.63C120.278 19.8389 119.991 20.9193 119.415 21.8713C118.84 22.8233 118.045 23.5714 117.031 24.1154C116.017 24.6442 114.866 24.9087 113.579 24.9087ZM113.579 22.0073C114.487 22.0073 115.23 21.7052 115.805 21.1007C116.395 20.4811 116.69 19.6575 116.69 18.63C116.69 17.6025 116.395 16.7865 115.805 16.182C115.23 15.5624 114.487 15.2526 113.579 15.2526C112.671 15.2526 111.921 15.5624 111.331 16.182C110.741 16.7865 110.445 17.6025 110.445 18.63C110.445 19.6575 110.741 20.4811 111.331 21.1007C111.921 21.7052 112.671 22.0073 113.579 22.0073ZM128.459 24.9087C127.173 24.9087 126.015 24.6442 124.985 24.1154C123.971 23.5714 123.176 22.8233 122.6 21.8713C122.025 20.9193 121.738 19.8389 121.738 18.63C121.738 17.4211 122.025 16.3406 122.6 15.3886C123.176 14.4366 123.971 13.6961 124.985 13.1673C126.015 12.6233 127.173 12.3513 128.459 12.3513C129.746 12.3513 130.897 12.6233 131.911 13.1673C132.925 13.6961 133.72 14.4366 134.295 15.3886C134.871 16.3406 135.158 17.4211 135.158 18.63C135.158 19.8389 134.871 20.9193 134.295 21.8713C133.72 22.8233 132.925 23.5714 131.911 24.1154C130.897 24.6442 129.746 24.9087 128.459 24.9087ZM128.459 22.0073C129.367 22.0073 130.11 21.7052 130.684 21.1007C131.275 20.4811 131.57 19.6575 131.57 18.63C131.57 17.6025 131.275 16.7865 130.684 16.182C130.11 15.5624 129.367 15.2526 128.459 15.2526C127.551 15.2526 126.801 15.5624 126.211 16.182C125.621 16.7865 125.325 17.6025 125.325 18.63C125.325 19.6575 125.621 20.4811 126.211 21.1007C126.801 21.7052 127.551 22.0073 128.459 22.0073ZM141.636 24.9087C140.622 24.9087 139.63 24.7878 138.661 24.546C137.693 24.2892 136.921 23.9718 136.345 23.594L137.526 21.0553C138.071 21.4029 138.729 21.69 139.501 21.9167C140.273 22.1282 141.031 22.234 141.772 22.234C143.271 22.234 144.02 21.8638 144.02 21.1233C144.02 20.7758 143.816 20.5265 143.407 20.3753C142.998 20.2242 142.371 20.0958 141.522 19.99C140.523 19.8388 139.699 19.6651 139.047 19.4687C138.397 19.2722 137.829 18.9247 137.344 18.426C136.875 17.9273 136.64 17.2171 136.64 16.2953C136.64 15.5246 136.86 14.8446 137.299 14.2553C137.753 13.6508 138.404 13.1824 139.252 12.85C140.114 12.5175 141.129 12.3513 142.294 12.3513C143.157 12.3513 144.013 12.4495 144.86 12.646C145.723 12.8273 146.436 13.0841 146.995 13.4166L145.814 15.9326C144.74 15.3282 143.566 15.026 142.294 15.026C141.538 15.026 140.97 15.1318 140.591 15.3433C140.214 15.5548 140.024 15.8268 140.024 16.1593C140.024 16.5371 140.228 16.8015 140.637 16.9526C141.046 17.1038 141.697 17.2473 142.59 17.3833C143.589 17.5495 144.406 17.7308 145.042 17.9273C145.678 18.1087 146.231 18.4487 146.7 18.9473C147.169 19.446 147.404 20.1411 147.404 21.0327C147.404 21.7882 147.177 22.4607 146.722 23.05C146.268 23.6393 145.603 24.1002 144.724 24.4327C143.861 24.75 142.832 24.9087 141.636 24.9087ZM157.47 24.138C157.121 24.3949 156.689 24.5914 156.175 24.7274C155.676 24.8482 155.145 24.9087 154.586 24.9087C153.132 24.9087 152.004 24.5385 151.202 23.798C150.415 23.0575 150.021 21.9695 150.021 20.534V15.5246H148.137V12.8046H150.021V9.83527H153.564V12.8046H156.607V15.5246H153.564V20.4887C153.564 21.0025 153.692 21.4029 153.95 21.69C154.222 21.962 154.6 22.098 155.085 22.098C155.645 22.098 156.122 21.9469 156.516 21.6447L157.47 24.138Z" fill="#393D51"/>
<path d="M160.797 24.9088C160.177 24.9088 159.655 24.6973 159.231 24.2742C158.807 23.851 158.595 23.3222 158.595 22.6875C158.595 22.0377 158.807 21.5163 159.231 21.1235C159.655 20.7155 160.177 20.5115 160.797 20.5115C161.419 20.5115 161.941 20.7155 162.364 21.1235C162.788 21.5163 163 22.0377 163 22.6875C163 23.3222 162.788 23.851 162.364 24.2742C161.941 24.6973 161.419 24.9088 160.797 24.9088Z" fill="#F4461D"/>
<path d="M42.1398 8.8606H49.361C51.0868 8.8606 52.6082 9.19304 53.9253 9.85793C55.2575 10.5078 56.2869 11.4295 57.0136 12.6233C57.7554 13.8171 58.1263 15.2073 58.1263 16.794C58.1263 18.3807 57.7554 19.7708 57.0136 20.9647C56.2869 22.1585 55.2575 23.0878 53.9253 23.7527C52.6082 24.4025 51.0868 24.7274 49.361 24.7274H42.1398V8.8606ZM49.1793 21.7127C50.7689 21.7127 52.033 21.2745 52.9715 20.398C53.9253 19.5065 54.4021 18.3051 54.4021 16.794C54.4021 15.2828 53.9253 14.0891 52.9715 13.2126C52.033 12.3211 50.7689 11.8753 49.1793 11.8753H45.8185V21.7127H49.1793ZM72.6179 18.6753C72.6179 18.7207 72.5952 19.038 72.5498 19.6273H63.3076C63.4741 20.3829 63.8677 20.9798 64.4884 21.418C65.1091 21.8562 65.8811 22.0753 66.8046 22.0753C67.4405 22.0753 68.0005 21.9847 68.485 21.8033C68.9846 21.6069 69.4463 21.3047 69.8702 20.8967L71.755 22.9367C70.6044 24.2514 68.924 24.9087 66.7138 24.9087C65.3361 24.9087 64.1174 24.6442 63.0578 24.1154C61.9981 23.5714 61.1806 22.8233 60.6053 21.8713C60.03 20.9193 59.7424 19.8389 59.7424 18.63C59.7424 17.4362 60.0225 16.3633 60.5826 15.4113C61.1579 14.4441 61.9375 13.6961 62.9216 13.1673C63.9207 12.6233 65.0334 12.3513 66.2596 12.3513C67.4555 12.3513 68.538 12.6081 69.5069 13.122C70.4757 13.6358 71.2327 14.3761 71.7777 15.3433C72.3377 16.2953 72.6179 17.406 72.6179 18.6753ZM66.2823 15.026C65.4799 15.026 64.8063 15.2526 64.2613 15.706C63.7163 16.1593 63.3833 16.7788 63.2622 17.5646H69.2798C69.1586 16.794 68.8256 16.182 68.2806 15.7286C67.7357 15.2602 67.0695 15.026 66.2823 15.026ZM86.8806 12.5326L81.7258 24.7274H78.0699L72.9379 12.5326H76.5938L79.9773 20.8287L83.4744 12.5326H86.8806Z" fill="#F1554C"/>
<path d="M32.9366 14.7253H3.6431C3.79584 13.5949 4.09727 12.4949 4.54472 11.439C5.19872 9.89567 6.13598 8.50844 7.32994 7.31665C7.5392 7.10777 7.7545 6.90662 7.97553 6.7142C8.08083 6.82603 8.18781 6.93617 8.29681 7.04498C9.62265 8.3684 11.1669 9.4074 12.887 10.1338C14.6686 10.8856 16.5603 11.2675 18.5092 11.2675H32.1857C31.7696 10.0216 31.2084 8.8419 30.5221 7.74816C27.603 3.09483 22.4211 0 16.5149 0C13.7404 0 11.1258 0.682704 8.83071 1.88927C7.77738 2.44303 6.79133 3.10692 5.88804 3.86585C2.71054 6.53454 0.555095 10.3779 0.0931886 14.7253C0.0316236 15.3036 0 15.8903 0 16.4849C0 17.0796 0.0316236 17.6663 0.0931886 18.2446H29.3864C29.2336 19.375 28.9323 20.475 28.4848 21.5309C27.8307 23.0742 26.8935 24.4615 25.6996 25.653C25.4902 25.8618 25.2749 26.0629 25.0539 26.2557C24.9487 26.1439 24.8416 26.0334 24.7326 25.9245C23.4068 24.6012 21.8626 23.5621 20.1425 22.8358C18.3609 22.084 16.4695 21.7021 14.5202 21.7021H0.84408C1.26023 22.948 1.82139 24.1277 2.50768 25.2214C5.42681 29.8751 10.6087 32.9699 16.5149 32.9699C19.289 32.9699 21.9037 32.2872 24.1988 31.0806C25.2521 30.5272 26.2385 29.863 27.1417 29.1044C30.3193 26.4351 32.4747 22.592 32.9366 18.2446C32.9982 17.6663 33.0298 17.0796 33.0298 16.4849C33.0298 15.8903 32.9982 15.3036 32.9366 14.7253ZM11.4598 4.5368C13.0588 3.86183 14.7598 3.5193 16.5149 3.5193C18.27 3.5193 19.9706 3.86149 21.5696 4.5368C23.1158 5.18962 24.5055 6.12519 25.6996 7.31665C25.8409 7.45802 25.9788 7.60175 26.1129 7.74849H18.5092C15.5988 7.74849 12.9506 6.60574 10.9912 4.74568C11.146 4.6728 11.3021 4.6033 11.4598 4.5368ZM21.5696 28.4331C19.9706 29.1081 18.27 29.4506 16.5149 29.4506C14.7598 29.4506 13.0588 29.1081 11.4598 28.4331C9.91365 27.7802 8.5239 26.8447 7.32994 25.653C7.18864 25.5119 7.05071 25.3682 6.91681 25.2214H14.5202C17.4307 25.2214 20.0789 26.3642 22.0383 28.2242C21.8835 28.2971 21.7274 28.3666 21.5696 28.4331Z" fill="#F1554C"/>
</svg>
